<svg width="126" height="36" viewBox="0 0 126 36" fill="none" xmlns="http://www.w3.org/2000/svg">
<path d="M2.34554 5.58489L1.99947 4.70052C1.92257 4.50826 1.76877 4.316 1.53806 4.23909L0.653674 3.85458C0.538319 3.81613 0.538319 3.62387 0.653674 3.54697L1.53806 3.2009C1.73032 3.124 1.92257 2.9702 1.99947 2.73949L2.38399 1.8551C2.42244 1.73975 2.6147 1.73975 2.6916 1.8551L3.03766 2.73949C3.11457 2.93175 3.26837 3.124 3.49908 3.2009L4.38346 3.58542C4.49882 3.62387 4.49882 3.81613 4.38346 3.89303L3.49908 4.23909C3.30682 4.316 3.11457 4.46981 3.03766 4.70052L2.65315 5.58489C2.57625 5.70025 2.38399 5.70025 2.34554 5.58489ZM37.3364 19.0045C36.798 28.5404 28.9155 36 19.3795 36C14.4962 36 9.92047 34.0774 6.49829 30.5783C3.07611 27.0793 1.26889 22.4651 1.38425 17.5818C1.38425 17.1972 1.4227 16.8127 1.46115 16.4282C1.46115 16.3129 1.4227 16.159 1.30735 16.0821C0.499867 15.4669 0 14.5056 0 13.429C0 11.6218 1.4227 10.1991 3.19147 10.1222C3.22992 10.1222 3.26837 10.1222 3.34528 10.1222C4.22966 10.1222 5.03714 10.4682 5.61391 11.045C6.26758 11.6602 6.6521 12.5062 6.6521 13.4674C6.6521 14.967 5.65236 16.2744 4.26811 16.6589C4.1143 16.6974 3.99895 16.8512 3.99895 17.005C3.99895 17.2357 3.9605 17.4279 3.9605 17.6587C3.84514 22.0806 5.57546 26.2333 8.80538 29.271C11.4201 31.7319 14.8807 33.2315 18.4567 33.4238C26.7622 33.8852 33.7988 27.7714 34.6832 19.735C34.7217 19.5043 34.5294 19.3121 34.2987 19.3121H25.4933C25.3395 19.3121 25.1857 19.4274 25.1473 19.5812C24.4551 22.119 22.1096 24.0031 19.3795 24.0031C15.9574 24.0031 13.1504 21.0808 13.3811 17.6202C13.5734 14.6594 15.9574 12.2754 18.8797 12.0447C21.8404 11.814 24.4167 13.7751 25.1473 16.4282C25.1857 16.582 25.3395 16.6974 25.5318 16.6974H35.1446C35.7599 16.6974 36.3366 16.9281 36.7211 17.3895C37.1826 17.8125 37.3748 18.4277 37.3364 19.0045ZM22.8017 18.0047C22.8017 16.1206 21.2637 14.5825 19.3795 14.5825C17.4954 14.5825 15.9574 16.1206 15.9574 18.0047C15.9574 19.8888 17.4954 21.4269 19.3795 21.4269C21.2637 21.4269 22.8017 19.8888 22.8017 18.0047ZM2.57625 13.4674C2.57625 13.8904 2.92231 14.198 3.30682 14.198C3.69134 14.198 4.0374 13.852 4.0374 13.4674C4.0374 13.0829 3.69134 12.7369 3.30682 12.7369C2.92231 12.7369 2.57625 13.0445 2.57625 13.4674ZM6.38294 9.73765C6.26759 9.92991 6.03687 9.96836 5.84461 9.85301C5.3832 9.5454 4.84488 9.31469 4.30656 9.16088C4.0374 9.12243 3.9605 8.81482 4.07585 8.58411C4.80643 7.43057 5.65236 6.31548 6.61364 5.35419C9.88202 2.04736 14.1886 0.163241 18.8028 0.00943508C23.6476 -0.144371 28.2618 1.58594 31.7609 4.93122C32.6068 5.7387 33.0683 6.8538 32.9913 8.04579C32.9144 9.23779 32.3761 10.3144 31.4148 11.045C29.8383 12.237 27.6082 12.1601 26.1854 10.8143C25.7625 10.4298 25.3395 10.0837 24.8781 9.77611C24.7243 9.6992 24.5705 9.6992 24.4167 9.81455C23.8399 10.276 23.1093 10.5836 22.3018 10.5836C20.7638 10.5836 19.4564 9.5454 19.1104 8.12269C19.0335 7.85353 18.995 7.54592 18.995 7.27676C18.995 6.66154 19.1873 6.04632 19.4949 5.54645C20.0717 4.58516 21.1483 3.93149 22.3403 3.93149C24.1091 3.93149 25.5318 5.31573 25.6471 7.04605C25.6471 7.16141 25.724 7.27676 25.8394 7.35366C26.6084 7.81508 27.339 8.3534 27.9927 9.00708C28.4925 9.4685 29.3 9.50695 29.8383 9.08398C30.1844 8.81482 30.3767 8.4303 30.4151 8.00734C30.4536 7.58437 30.2613 7.19986 29.9537 6.89225C26.9545 4.04684 22.994 2.54723 18.8412 2.66259C13.6118 2.73949 9.0361 5.5849 6.38294 9.73765ZM23.1093 7.19986C23.1093 6.77689 22.7633 6.46928 22.3787 6.46928C21.9942 6.46928 21.6482 6.81535 21.6482 7.19986C21.6482 7.62283 21.9942 7.96889 22.3787 7.96889C22.7633 7.96889 23.1093 7.62283 23.1093 7.19986ZM17.6877 5.62335C17.9568 5.5849 18.1875 5.8156 18.1106 6.08476C17.9953 6.46928 17.9568 6.81535 17.9568 7.19986C17.9568 7.39212 17.9568 7.58437 17.9953 7.77663C18.0337 7.96889 17.8799 8.16114 17.6877 8.19959C15.6113 8.54566 13.6887 9.5454 12.1891 11.1219C10.305 13.0829 9.30525 15.6592 9.42061 18.3892C9.61287 23.5033 13.8041 27.6945 18.9181 27.9252C21.0714 28.0021 23.1093 27.4253 24.8396 26.3102C24.9935 26.1949 25.0319 26.0026 24.955 25.8104C24.7627 25.3874 24.6089 24.8875 24.6089 24.3877C24.6089 22.5035 26.1854 20.9655 28.108 21.0808C29.7999 21.1577 31.1841 22.542 31.261 24.2339C31.3379 26.1564 29.8383 27.7329 27.9542 27.7329C27.8004 27.7329 27.6466 27.7329 27.4928 27.6945C27.3774 27.6945 27.2621 27.6945 27.1852 27.7714C24.8396 29.6555 21.9173 30.6552 18.7643 30.5014C12.3045 30.2323 7.07506 24.9644 6.8059 18.5046C6.69055 15.0824 7.921 11.814 10.305 9.31469C12.3429 7.27676 14.9192 5.96941 17.6877 5.62335ZM27.2236 24.3877C27.2236 24.8106 27.5697 25.1182 27.9542 25.1182C28.3387 25.1182 28.6848 24.7722 28.6848 24.3877C28.6848 24.0031 28.3387 23.6571 27.9542 23.6571C27.5697 23.6571 27.2236 23.9647 27.2236 24.3877Z" fill="url(#paint0_linear_27_4030)"/>
<path d="M54.7568 24.68C53.6408 24.68 52.6688 24.488 51.8408 24.104C51.0128 23.72 50.3228 23.204 49.7708 22.556C49.2308 21.896 48.8228 21.164 48.5468 20.36C48.2828 19.544 48.1508 18.71 48.1508 17.858C48.1508 17.006 48.2828 16.172 48.5468 15.356C48.8228 14.54 49.2368 13.808 49.7888 13.16C50.3408 12.5 51.0368 11.978 51.8768 11.594C52.7168 11.198 53.6948 11 54.8108 11C55.6868 11 56.4368 11.114 57.0608 11.342C57.6968 11.558 58.2248 11.84 58.6448 12.188C59.0768 12.536 59.4188 12.908 59.6708 13.304C59.9348 13.688 60.1328 14.054 60.2648 14.402C60.3968 14.75 60.4868 15.038 60.5348 15.266C60.5828 15.482 60.6068 15.59 60.6068 15.59H58.1588C58.1588 15.59 58.1348 15.512 58.0868 15.356C58.0508 15.188 57.9668 14.984 57.8348 14.744C57.7028 14.504 57.5108 14.264 57.2588 14.024C57.0188 13.784 56.7008 13.586 56.3048 13.43C55.9088 13.262 55.4168 13.178 54.8288 13.178C54.1208 13.178 53.5028 13.31 52.9748 13.574C52.4588 13.838 52.0268 14.192 51.6788 14.636C51.3308 15.08 51.0728 15.578 50.9048 16.13C50.7368 16.682 50.6528 17.246 50.6528 17.822C50.6528 18.602 50.8088 19.352 51.1208 20.072C51.4328 20.792 51.8948 21.38 52.5068 21.836C53.1308 22.292 53.8988 22.52 54.8108 22.52C55.8668 22.52 56.7008 22.232 57.3128 21.656C57.9368 21.08 58.2908 20.312 58.3748 19.352H54.7388V17.408H60.7508V18.398C60.7508 19.778 60.4868 20.936 59.9588 21.872C59.4308 22.796 58.7108 23.498 57.7988 23.978C56.8988 24.446 55.8848 24.68 54.7568 24.68ZM67.2504 24.68C66.4344 24.68 65.7264 24.542 65.1264 24.266C64.5384 23.978 64.0464 23.6 63.6504 23.132C63.2664 22.652 62.9784 22.118 62.7864 21.53C62.5944 20.942 62.4984 20.342 62.4984 19.73C62.4984 19.118 62.5884 18.524 62.7684 17.948C62.9604 17.36 63.2424 16.826 63.6144 16.346C63.9984 15.866 64.4844 15.488 65.0724 15.212C65.6604 14.924 66.3564 14.78 67.1604 14.78C68.0244 14.78 68.7864 14.972 69.4464 15.356C70.1064 15.74 70.6224 16.304 70.9944 17.048C71.3664 17.78 71.5524 18.692 71.5524 19.784V20.396H64.9104C64.9464 21.044 65.1684 21.608 65.5764 22.088C65.9844 22.556 66.5424 22.79 67.2504 22.79C67.6584 22.79 67.9944 22.724 68.2584 22.592C68.5224 22.46 68.7264 22.31 68.8704 22.142C69.0144 21.962 69.1164 21.812 69.1764 21.692C69.2364 21.56 69.2664 21.494 69.2664 21.494H71.4804C71.4804 21.494 71.4504 21.602 71.3904 21.818C71.3304 22.022 71.2164 22.286 71.0484 22.61C70.8924 22.922 70.6584 23.24 70.3464 23.564C70.0344 23.876 69.6264 24.14 69.1224 24.356C68.6184 24.572 67.9944 24.68 67.2504 24.68ZM64.9104 18.83H69.2484C69.2124 18.086 68.9904 17.534 68.5824 17.174C68.1744 16.814 67.6944 16.634 67.1424 16.634C66.5304 16.634 66.0204 16.832 65.6124 17.228C65.2044 17.612 64.9704 18.146 64.9104 18.83ZM77.4983 24.68C76.7183 24.68 76.0763 24.578 75.5723 24.374C75.0683 24.158 74.6663 23.894 74.3663 23.582C74.0783 23.258 73.8623 22.94 73.7183 22.628C73.5743 22.316 73.4783 22.058 73.4303 21.854C73.3943 21.638 73.3763 21.53 73.3763 21.53H75.6443C75.6443 21.53 75.6623 21.596 75.6983 21.728C75.7463 21.86 75.8303 22.016 75.9503 22.196C76.0823 22.364 76.2803 22.514 76.5443 22.646C76.8083 22.778 77.1563 22.844 77.5883 22.844C78.1043 22.844 78.4763 22.736 78.7043 22.52C78.9323 22.292 79.0463 22.04 79.0463 21.764C79.0463 21.5 78.9443 21.29 78.7403 21.134C78.5483 20.966 78.2603 20.84 77.8763 20.756L76.5623 20.486C76.0343 20.378 75.5423 20.222 75.0863 20.018C74.6303 19.802 74.2583 19.514 73.9703 19.154C73.6823 18.782 73.5383 18.308 73.5383 17.732C73.5383 16.88 73.8623 16.178 74.5103 15.626C75.1583 15.062 76.0403 14.78 77.1563 14.78C77.8643 14.78 78.4463 14.876 78.9023 15.068C79.3703 15.26 79.7423 15.5 80.0183 15.788C80.3063 16.076 80.5163 16.364 80.6483 16.652C80.7923 16.94 80.8823 17.186 80.9183 17.39C80.9663 17.582 80.9903 17.678 80.9903 17.678H78.7943C78.7943 17.678 78.7763 17.624 78.7403 17.516C78.7043 17.396 78.6263 17.264 78.5063 17.12C78.3983 16.976 78.2303 16.85 78.0023 16.742C77.7863 16.622 77.4923 16.562 77.1203 16.562C76.6163 16.562 76.2563 16.67 76.0403 16.886C75.8363 17.102 75.7343 17.33 75.7343 17.57C75.7343 17.834 75.8483 18.038 76.0763 18.182C76.3043 18.326 76.5983 18.434 76.9583 18.506L78.2003 18.776C79.0883 18.956 79.8143 19.268 80.3783 19.712C80.9543 20.156 81.2423 20.798 81.2423 21.638C81.2423 22.202 81.0923 22.718 80.7923 23.186C80.5043 23.642 80.0783 24.008 79.5143 24.284C78.9623 24.548 78.2903 24.68 77.4983 24.68ZM87.2647 24.68C86.6167 24.68 86.0827 24.584 85.6627 24.392C85.2427 24.2 84.9127 23.948 84.6727 23.636C84.4447 23.324 84.2827 22.982 84.1867 22.61C84.0907 22.238 84.0427 21.872 84.0427 21.512V16.886H82.4047V14.96H84.0427V12.584H86.4367V14.96H88.5787V16.886H86.4367V21.458C86.4367 22.31 86.9167 22.736 87.8767 22.736C88.1047 22.736 88.3147 22.724 88.5067 22.7C88.7107 22.664 88.8127 22.646 88.8127 22.646V24.518C88.8127 24.518 88.6567 24.542 88.3447 24.59C88.0447 24.65 87.6847 24.68 87.2647 24.68ZM95.0958 24.5V11.18H100.352C101.42 11.18 102.308 11.396 103.016 11.828C103.724 12.248 104.252 12.8 104.6 13.484C104.96 14.156 105.14 14.858 105.14 15.59C105.14 16.322 104.96 17.03 104.6 17.714C104.252 18.386 103.724 18.938 103.016 19.37C102.308 19.802 101.42 20.018 100.352 20.018H97.5438V24.5H95.0958ZM100.334 13.304H97.5438V17.894H100.334C100.862 17.894 101.3 17.786 101.648 17.57C101.996 17.342 102.254 17.054 102.422 16.706C102.602 16.346 102.692 15.98 102.692 15.608C102.692 15.224 102.602 14.858 102.422 14.51C102.254 14.162 101.996 13.874 101.648 13.646C101.3 13.418 100.862 13.304 100.334 13.304ZM106.922 24.5V14.96H109.298V16.274H109.388C109.556 15.902 109.832 15.56 110.216 15.248C110.6 14.936 111.176 14.78 111.944 14.78C112.184 14.78 112.382 14.798 112.538 14.834C112.694 14.858 112.772 14.87 112.772 14.87V17.192C112.772 17.192 112.682 17.18 112.502 17.156C112.334 17.132 112.124 17.12 111.872 17.12C111.032 17.12 110.396 17.354 109.964 17.822C109.532 18.29 109.316 19.046 109.316 20.09V24.5H106.922ZM118.652 24.68C117.608 24.68 116.72 24.446 115.988 23.978C115.256 23.51 114.698 22.904 114.314 22.16C113.942 21.404 113.756 20.594 113.756 19.73C113.756 18.866 113.942 18.062 114.314 17.318C114.698 16.562 115.256 15.95 115.988 15.482C116.72 15.014 117.608 14.78 118.652 14.78C119.708 14.78 120.596 15.014 121.316 15.482C122.048 15.95 122.6 16.562 122.972 17.318C123.356 18.062 123.548 18.866 123.548 19.73C123.548 20.594 123.356 21.404 122.972 22.16C122.6 22.904 122.048 23.51 121.316 23.978C120.596 24.446 119.708 24.68 118.652 24.68ZM118.652 22.682C119.192 22.682 119.642 22.544 120.002 22.268C120.374 21.992 120.656 21.632 120.848 21.188C121.04 20.732 121.136 20.246 121.136 19.73C121.136 19.202 121.04 18.716 120.848 18.272C120.656 17.828 120.374 17.468 120.002 17.192C119.642 16.916 119.192 16.778 118.652 16.778C118.124 16.778 117.674 16.916 117.302 17.192C116.93 17.468 116.648 17.828 116.456 18.272C116.264 18.716 116.168 19.202 116.168 19.73C116.168 20.246 116.264 20.732 116.456 21.188C116.648 21.632 116.93 21.992 117.302 22.268C117.674 22.544 118.124 22.682 118.652 22.682Z" fill="white"/>
<defs>
<linearGradient id="paint0_linear_27_4030" x1="18.6706" y1="0" x2="18.6706" y2="36" gradientUnits="userSpaceOnUse">
<stop stop-color="white"/>
<stop offset="1" stop-color="#F8F8F8"/>
</linearGradient>
</defs>
</svg>
