<svg width="291" height="75" viewBox="0 0 291 75" fill="none" xmlns="http://www.w3.org/2000/svg">
<path d="M4.83665 11.5164L4.12305 9.69278C3.96447 9.29633 3.64732 8.89988 3.17158 8.7413L1.34792 7.9484C1.11005 7.86911 1.11005 7.47267 1.34792 7.3141L3.17158 6.60048C3.56803 6.4419 3.96447 6.12475 4.12305 5.64901L4.91595 3.82535C4.99524 3.58748 5.39169 3.58748 5.55027 3.82535L6.26387 5.64901C6.42245 6.04546 6.7396 6.4419 7.21534 6.60048L9.039 7.39338C9.27687 7.47267 9.27687 7.86912 9.039 8.0277L7.21534 8.7413C6.81889 8.89988 6.42245 9.21704 6.26387 9.69278L5.47097 11.5164C5.31239 11.7543 4.91594 11.7543 4.83665 11.5164ZM76.9901 39.1885C75.8801 58.8523 59.6257 74.2344 39.9619 74.2344C29.8921 74.2344 20.4567 70.27 13.3999 63.0546C6.34316 55.8393 2.61655 46.3245 2.85442 36.2548C2.85442 35.4619 2.9337 34.669 3.01299 33.8761C3.01299 33.6382 2.93371 33.321 2.69584 33.1625C1.03076 31.8938 0 29.9116 0 27.6915C0 23.9649 2.9337 21.0312 6.58102 20.8726C6.66031 20.8726 6.73961 20.8726 6.89819 20.8726C8.72185 20.8726 10.3869 21.5862 11.5763 22.7756C12.9242 24.0442 13.7171 25.7885 13.7171 27.7708C13.7171 30.8631 11.6556 33.5589 8.80113 34.3518C8.48397 34.4311 8.24611 34.7483 8.24611 35.0654C8.24611 35.5412 8.16681 35.9376 8.16681 36.4133C7.92894 45.5316 11.497 54.0949 18.1573 60.3588C23.549 65.4333 30.685 68.5256 38.059 68.9221C55.1855 69.8735 69.6955 57.2665 71.5191 40.695C71.5984 40.2192 71.202 39.8228 70.7262 39.8228H52.5689C52.2518 39.8228 51.9346 40.0607 51.8553 40.3778C50.4281 45.6109 45.5915 49.4961 39.9619 49.4961C32.9051 49.4961 27.117 43.4701 27.5927 36.334C27.9892 30.2288 32.9052 25.3128 38.9312 24.8371C45.0365 24.3613 50.3488 28.4051 51.8553 33.8761C51.9346 34.1932 52.2518 34.4311 52.6482 34.4311H72.4706C73.7393 34.4311 74.9286 34.9068 75.7215 35.8583C76.673 36.7305 77.0694 37.9991 76.9901 39.1885ZM47.0187 37.1269C47.0187 33.2418 43.8471 30.0702 39.9619 30.0702C36.0767 30.0702 32.9052 33.2418 32.9052 37.1269C32.9052 41.0121 36.0767 44.1837 39.9619 44.1837C43.8471 44.1837 47.0187 41.0121 47.0187 37.1269ZM5.3124 27.7708C5.3124 28.643 6.026 29.2773 6.81889 29.2773C7.61179 29.2773 8.3254 28.5637 8.3254 27.7708C8.3254 26.9779 7.61179 26.2643 6.81889 26.2643C6.026 26.2643 5.3124 26.8986 5.3124 27.7708ZM13.1621 20.0797C12.9242 20.4761 12.4484 20.5554 12.052 20.3176C11.1005 19.6833 9.99048 19.2075 8.88042 18.8904C8.3254 18.8111 8.16681 18.1768 8.40468 17.701C9.91118 15.3223 11.6555 13.0229 13.6378 11.0407C20.3774 4.2218 29.2578 0.336614 38.7726 0.0194558C48.7631 -0.297702 58.2778 3.27032 65.4932 10.1685C67.2375 11.8336 68.189 14.133 68.0304 16.591C67.8718 19.0489 66.7618 21.2691 64.7795 22.7756C61.5287 25.2335 56.9299 25.0749 53.9962 22.2998C53.124 21.5069 52.2518 20.7933 51.3003 20.159C50.9832 20.0004 50.666 20.0004 50.3489 20.2383C49.1595 21.1898 47.653 21.8241 45.9879 21.8241C42.8163 21.8241 40.1205 19.6833 39.4069 16.7495C39.2483 16.1945 39.169 15.5602 39.169 15.0052C39.169 13.7365 39.5655 12.4679 40.1998 11.4371C41.3891 9.45491 43.6092 8.10699 46.0672 8.10699C49.7145 8.10699 52.6482 10.9614 52.8861 14.5294C52.8861 14.7673 53.0447 15.0052 53.2825 15.1638C54.8683 16.1152 56.3748 17.2253 57.7228 18.5732C58.7535 19.5247 60.4186 19.604 61.5287 18.7318C62.2423 18.1768 62.6387 17.3839 62.718 16.5117C62.7973 15.6395 62.4009 14.8466 61.7665 14.2123C55.582 8.34486 47.4151 5.25257 38.8519 5.49043C28.0685 5.64901 18.633 11.5164 13.1621 20.0797ZM47.653 14.8466C47.653 13.9744 46.9394 13.3401 46.1465 13.3401C45.3536 13.3401 44.64 14.0537 44.64 14.8466C44.64 15.7188 45.3536 16.4324 46.1465 16.4324C46.9394 16.4324 47.653 15.7188 47.653 14.8466ZM36.4732 11.5957C37.0282 11.5164 37.504 11.9922 37.3454 12.5472C37.1075 13.3401 37.0282 14.0537 37.0282 14.8466C37.0282 15.243 37.0282 15.6395 37.1075 16.0359C37.1868 16.4324 36.8696 16.8288 36.4732 16.9081C32.1915 17.6217 28.2271 19.6833 25.1348 22.9341C21.2496 26.9779 19.1881 32.2903 19.4259 37.9198C19.8224 48.4653 28.4649 57.1079 39.0104 57.5836C43.4506 57.7422 47.653 56.5529 51.221 54.2535C51.5382 54.0156 51.6175 53.6192 51.4589 53.2227C51.0625 52.3505 50.7453 51.3198 50.7453 50.289C50.7453 46.4038 53.9962 43.2322 57.9606 43.4701C61.4494 43.6287 64.3038 46.4831 64.4624 49.9718C64.621 53.9363 61.5287 57.1872 57.6435 57.1872C57.3263 57.1872 57.0092 57.1872 56.692 57.1079C56.4541 57.1079 56.2163 57.1079 56.0577 57.2665C51.221 61.1517 45.195 63.2132 38.6933 62.896C25.3726 62.341 14.5893 51.4784 14.0342 38.1577C13.7964 31.1009 16.3336 24.3613 21.2496 19.2075C25.4519 15.0052 30.7643 12.3093 36.4732 11.5957ZM56.137 50.289C56.137 51.1612 56.8506 51.7955 57.6435 51.7955C58.4364 51.7955 59.15 51.0819 59.15 50.289C59.15 49.4961 58.4364 48.7825 57.6435 48.7825C56.8506 48.7825 56.137 49.4168 56.137 50.289Z" fill="url(#paint0_linear_35_6017)"/>
<path d="M112.344 30.5772C111.736 29.4572 110.856 28.6092 109.704 28.0332C108.584 27.4252 107.256 27.1212 105.72 27.1212C103.064 27.1212 100.936 28.0012 99.336 29.7612C97.736 31.4892 96.936 33.8092 96.936 36.7212C96.936 39.8252 97.768 42.2572 99.432 44.0172C101.128 45.7452 103.448 46.6092 106.392 46.6092C108.408 46.6092 110.104 46.0972 111.48 45.0732C112.888 44.0492 113.912 42.5772 114.552 40.6572H104.136V34.6092H121.992V42.2412C121.384 44.2892 120.344 46.1932 118.872 47.9532C117.432 49.7132 115.592 51.1372 113.352 52.2252C111.112 53.3132 108.584 53.8572 105.768 53.8572C102.44 53.8572 99.464 53.1372 96.84 51.6972C94.248 50.2252 92.216 48.1932 90.744 45.6012C89.304 43.0092 88.584 40.0492 88.584 36.7212C88.584 33.3932 89.304 30.4332 90.744 27.8412C92.216 25.2172 94.248 23.1852 96.84 21.7452C99.432 20.2732 102.392 19.5372 105.72 19.5372C109.752 19.5372 113.144 20.5132 115.896 22.4652C118.68 24.4172 120.52 27.1212 121.416 30.5772H112.344ZM151.786 39.7932C151.786 40.5612 151.739 41.3612 151.643 42.1932H133.067C133.195 43.8572 133.723 45.1372 134.651 46.0332C135.611 46.8972 136.779 47.3292 138.155 47.3292C140.203 47.3292 141.627 46.4652 142.427 44.7372H151.163C150.715 46.4972 149.899 48.0812 148.715 49.4892C147.563 50.8972 146.107 52.0012 144.347 52.8012C142.587 53.6012 140.619 54.0012 138.443 54.0012C135.819 54.0012 133.483 53.4412 131.435 52.3212C129.387 51.2012 127.787 49.6012 126.635 47.5212C125.483 45.4412 124.907 43.0092 124.907 40.2252C124.907 37.4412 125.467 35.0092 126.587 32.9292C127.739 30.8492 129.339 29.2492 131.387 28.1292C133.435 27.0092 135.787 26.4492 138.443 26.4492C141.035 26.4492 143.339 26.9932 145.355 28.0812C147.371 29.1692 148.939 30.7212 150.059 32.7372C151.211 34.7532 151.786 37.1052 151.786 39.7932ZM143.387 37.6332C143.387 36.2252 142.907 35.1052 141.947 34.2732C140.987 33.4412 139.787 33.0252 138.347 33.0252C136.971 33.0252 135.803 33.4252 134.843 34.2252C133.915 35.0252 133.339 36.1612 133.115 37.6332H143.387ZM167.013 54.0012C164.677 54.0012 162.597 53.6012 160.773 52.8012C158.949 52.0012 157.509 50.9132 156.453 49.5372C155.397 48.1292 154.805 46.5612 154.677 44.8332H162.789C162.885 45.7612 163.317 46.5132 164.085 47.0892C164.853 47.6652 165.797 47.9532 166.917 47.9532C167.941 47.9532 168.725 47.7612 169.269 47.3772C169.845 46.9612 170.133 46.4332 170.133 45.7932C170.133 45.0252 169.733 44.4652 168.933 44.1132C168.133 43.7292 166.837 43.3132 165.045 42.8652C163.125 42.4172 161.525 41.9532 160.245 41.4732C158.965 40.9612 157.861 40.1772 156.933 39.1212C156.005 38.0332 155.541 36.5772 155.541 34.7532C155.541 33.2172 155.957 31.8252 156.789 30.5772C157.653 29.2972 158.901 28.2892 160.533 27.5532C162.197 26.8172 164.165 26.4492 166.437 26.4492C169.797 26.4492 172.437 27.2812 174.357 28.9452C176.309 30.6092 177.429 32.8172 177.717 35.5692H170.133C170.005 34.6412 169.589 33.9052 168.885 33.3612C168.213 32.8172 167.317 32.5452 166.197 32.5452C165.237 32.5452 164.501 32.7372 163.989 33.1212C163.477 33.4732 163.221 33.9692 163.221 34.6092C163.221 35.3772 163.621 35.9532 164.421 36.3372C165.253 36.7212 166.533 37.1052 168.261 37.4892C170.245 38.0012 171.861 38.5132 173.109 39.0252C174.357 39.5052 175.445 40.3052 176.373 41.4252C177.333 42.5132 177.829 43.9852 177.861 45.8412C177.861 47.4092 177.413 48.8172 176.517 50.0652C175.653 51.2812 174.389 52.2412 172.725 52.9452C171.093 53.6492 169.189 54.0012 167.013 54.0012ZM197.81 46.6572V53.6172H193.634C190.658 53.6172 188.338 52.8972 186.674 51.4572C185.01 49.9852 184.178 47.6012 184.178 44.3052V33.6492H180.914V26.8332H184.178V20.3052H192.386V26.8332H197.762V33.6492H192.386V44.4012C192.386 45.2012 192.578 45.7772 192.962 46.1292C193.346 46.4812 193.986 46.6572 194.882 46.6572H197.81Z" fill="#FF8D28"/>
<path d="M238.234 30.7692C238.234 32.7212 237.786 34.5132 236.89 36.1452C235.994 37.7452 234.618 39.0412 232.762 40.0332C230.906 41.0252 228.602 41.5212 225.85 41.5212H220.762V53.6172H212.554V19.9212H225.85C228.538 19.9212 230.81 20.3852 232.666 21.3132C234.522 22.2412 235.914 23.5212 236.842 25.1532C237.77 26.7852 238.234 28.6572 238.234 30.7692ZM225.226 34.9932C226.794 34.9932 227.962 34.6252 228.73 33.8892C229.498 33.1532 229.882 32.1132 229.882 30.7692C229.882 29.4252 229.498 28.3852 228.73 27.6492C227.962 26.9132 226.794 26.5452 225.226 26.5452H220.762V34.9932H225.226ZM250.715 31.2972C251.675 29.8252 252.875 28.6732 254.315 27.8412C255.755 26.9772 257.355 26.5452 259.115 26.5452V35.2332H256.859C254.811 35.2332 253.275 35.6812 252.251 36.5772C251.227 37.4412 250.715 38.9772 250.715 41.1852V53.6172H242.507V26.8332H250.715V31.2972ZM275.231 54.0012C272.607 54.0012 270.239 53.4412 268.127 52.3212C266.047 51.2012 264.399 49.6012 263.183 47.5212C261.999 45.4412 261.407 43.0092 261.407 40.2252C261.407 37.4732 262.015 35.0572 263.23 32.9772C264.447 30.8652 266.111 29.2492 268.223 28.1292C270.335 27.0092 272.703 26.4492 275.327 26.4492C277.951 26.4492 280.319 27.0092 282.431 28.1292C284.543 29.2492 286.207 30.8652 287.423 32.9772C288.639 35.0572 289.247 37.4732 289.247 40.2252C289.247 42.9772 288.623 45.4092 287.375 47.5212C286.159 49.6012 284.479 51.2012 282.335 52.3212C280.223 53.4412 277.855 54.0012 275.231 54.0012ZM275.231 46.8972C276.799 46.8972 278.127 46.3212 279.215 45.1692C280.335 44.0172 280.895 42.3692 280.895 40.2252C280.895 38.0812 280.351 36.4332 279.263 35.2812C278.207 34.1292 276.895 33.5532 275.327 33.5532C273.727 33.5532 272.399 34.1292 271.343 35.2812C270.287 36.4012 269.759 38.0492 269.759 40.2252C269.759 42.3692 270.271 44.0172 271.295 45.1692C272.351 46.3212 273.663 46.8972 275.231 46.8972Z" fill="#1E40AF"/>
<defs>
<linearGradient id="paint0_linear_35_6017" x1="38.5" y1="0" x2="38.5" y2="74.2344" gradientUnits="userSpaceOnUse">
<stop stop-color="#1E40AF"/>
<stop offset="1" stop-color="#1E40AF"/>
</linearGradient>
</defs>
</svg>
